<svg width="14" height="16" viewBox="0 0 14 16" fill="none" xmlns="http://www.w3.org/2000/svg">
<g id="ps:youtube" clip-path="url(#clip0_257_57)">
<path id="Vector" d="M11.2435 11.1156H10.4102V10.6238C10.4102 10.3615 10.5435 10.2303 10.8102 10.2303H10.8435C11.1102 10.2303 11.2435 10.3615 11.2435 10.6238V11.1156ZM8.07682 10.0664C7.81016 10.0664 7.67682 10.1757 7.67682 10.3943V12.7221C7.67682 12.9407 7.81016 13.05 8.07682 13.05C8.34349 13.05 8.47682 12.9407 8.47682 12.7221V10.3943C8.47682 10.1757 8.34349 10.0664 8.07682 10.0664ZM13.2102 8.75493V13.2139C13.2102 13.7604 13.0046 14.2194 12.5935 14.591C12.1824 14.9626 11.6879 15.1484 11.1102 15.1484H2.51016C1.93238 15.1484 1.43793 14.9626 1.02682 14.591C0.615712 14.2194 0.410156 13.7604 0.410156 13.2139V8.75493C0.410156 8.23034 0.615712 7.77679 1.02682 7.39428C1.43793 7.01176 1.93238 6.8205 2.51016 6.8205H11.1102C11.6879 6.8205 12.1824 7.01176 12.5935 7.39428C13.0046 7.77679 13.2102 8.23034 13.2102 8.75493ZM3.07682 13.7058V9.01723H4.14349V8.3287L1.31016 8.29591V8.98444H2.17682V13.7058H3.07682ZM6.27682 9.70575H5.37682V12.8205C5.33238 12.9298 5.2546 13.0008 5.14349 13.0336C5.03238 13.0664 4.94349 13.0063 4.87682 12.8533V12.2303L4.84349 9.70575H3.97682V12.9844C4.02127 13.356 4.09905 13.5746 4.21016 13.6402C4.41016 13.7713 4.66016 13.7768 4.96016 13.6566C5.26016 13.5364 5.46571 13.3779 5.57682 13.1812V13.7058H6.27682V9.70575ZM9.11016 12.591V10.4926C9.11016 10.0773 8.97682 9.79318 8.71016 9.64018C8.44349 9.48717 8.11016 9.56367 7.71016 9.86969V8.3287H6.81016V13.673H7.54349L7.61016 13.3123C8.07682 13.7058 8.44905 13.815 8.72682 13.6402C9.0046 13.4653 9.13238 13.1156 9.11016 12.591ZM11.9102 12.2959H11.2435V12.7549C11.2435 12.9954 11.1213 13.1156 10.8768 13.1156H10.7435C10.499 13.1156 10.3768 12.9954 10.3768 12.7549V11.8041H11.9102V11.2467C11.9102 10.6784 11.899 10.3178 11.8768 10.1648C11.8102 9.81504 11.5713 9.59646 11.1602 9.50903C10.749 9.4216 10.4102 9.47624 10.1435 9.67296C9.96571 9.82597 9.84349 9.9899 9.77682 10.1648C9.71016 10.3833 9.67682 10.6784 9.67682 11.05V12.2959C9.67682 13.1047 9.98793 13.5746 10.6102 13.7058C11.1435 13.815 11.5324 13.6402 11.7768 13.1812C11.9324 12.9407 11.9768 12.6456 11.9102 12.2959ZM8.47682 5.54182C8.52127 5.65111 8.59904 5.73854 8.71016 5.80411C8.79904 5.86969 8.92127 5.90247 9.07682 5.90247C9.21016 5.90247 9.32127 5.86969 9.41016 5.80411C9.49905 5.73854 9.57682 5.64018 9.64349 5.50903V5.8369H10.6435V1.67296H9.84349V4.91887C9.84349 5.13744 9.73238 5.24673 9.51016 5.24673C9.31016 5.24673 9.21016 5.13744 9.21016 4.91887V1.67296H8.37682V4.49264C8.37682 4.88608 8.38793 5.12652 8.41016 5.21395C8.41016 5.30138 8.43238 5.41067 8.47682 5.54182ZM5.47682 3.21395C5.47682 2.8205 5.51016 2.50356 5.57682 2.26313C5.64349 2.06641 5.76571 1.89154 5.94349 1.73854C6.12127 1.60739 6.34349 1.54182 6.61016 1.54182C6.8546 1.54182 7.0546 1.58553 7.21016 1.67296C7.36571 1.73854 7.48793 1.84783 7.57682 2.00083C7.66571 2.11012 7.73238 2.2522 7.77682 2.42706C7.79905 2.53635 7.81016 2.76586 7.81016 3.11559V4.16477C7.81016 4.60193 7.79905 4.88608 7.77682 5.01723C7.7546 5.17023 7.68793 5.33417 7.57682 5.50903C7.51016 5.61832 7.38793 5.73854 7.21016 5.86969C7.03238 5.93526 6.8546 5.96805 6.67682 5.96805C6.4546 5.96805 6.2546 5.93526 6.07682 5.86969C5.92127 5.80411 5.79905 5.70575 5.71016 5.5746C5.62127 5.39974 5.56571 5.24673 5.54349 5.11559C5.49904 4.89701 5.47682 4.62378 5.47682 4.29591V3.21395ZM6.24349 4.85329C6.24349 4.96258 6.28238 5.06094 6.36016 5.14837C6.43793 5.23581 6.53238 5.27952 6.64349 5.27952C6.91016 5.27952 7.04349 5.13744 7.04349 4.85329V2.65657C7.04349 2.37242 6.91016 2.23034 6.64349 2.23034C6.37682 2.23034 6.24349 2.37242 6.24349 2.65657V4.85329ZM3.51016 5.96805H4.44349V2.78772L5.54349 0.0664062H4.54349L3.94349 2.09919L3.34349 0.0664062H2.34349L3.51016 2.78772V5.96805Z" fill="black"/>
</g>
<defs>
<clipPath id="clip0_257_57">
<rect width="12.8" height="16" fill="white" transform="translate(0.410156)"/>
</clipPath>
</defs>
</svg>
