<svg width="13" height="16" viewBox="0 0 13 16" fill="none" xmlns="http://www.w3.org/2000/svg">
<g id="ps:youtube" clip-path="url(#clip0_257_98)">
<path id="Vector" d="M10.8333 11.1156H10V10.6238C10 10.3615 10.1333 10.2303 10.4 10.2303H10.4333C10.7 10.2303 10.8333 10.3615 10.8333 10.6238V11.1156ZM7.66667 10.0664C7.4 10.0664 7.26667 10.1757 7.26667 10.3943V12.7221C7.26667 12.9407 7.4 13.05 7.66667 13.05C7.93333 13.05 8.06667 12.9407 8.06667 12.7221V10.3943C8.06667 10.1757 7.93333 10.0664 7.66667 10.0664ZM12.8 8.75493V13.2139C12.8 13.7604 12.5944 14.2194 12.1833 14.591C11.7722 14.9626 11.2778 15.1484 10.7 15.1484H2.1C1.52222 15.1484 1.02778 14.9626 0.616667 14.591C0.205556 14.2194 0 13.7604 0 13.2139V8.75493C0 8.23034 0.205556 7.77679 0.616667 7.39428C1.02778 7.01176 1.52222 6.8205 2.1 6.8205H10.7C11.2778 6.8205 11.7722 7.01176 12.1833 7.39428C12.5944 7.77679 12.8 8.23034 12.8 8.75493ZM2.66667 13.7058V9.01723H3.73333V8.3287L0.9 8.29591V8.98444H1.76667V13.7058H2.66667ZM5.86667 9.70575H4.96667V12.8205C4.92222 12.9298 4.84444 13.0008 4.73333 13.0336C4.62222 13.0664 4.53333 13.0063 4.46667 12.8533V12.2303L4.43333 9.70575H3.56667V12.9844C3.61111 13.356 3.68889 13.5746 3.8 13.6402C4 13.7713 4.25 13.7768 4.55 13.6566C4.85 13.5364 5.05556 13.3779 5.16667 13.1812V13.7058H5.86667V9.70575ZM8.7 12.591V10.4926C8.7 10.0773 8.56667 9.79318 8.3 9.64018C8.03333 9.48717 7.7 9.56367 7.3 9.86969V8.3287H6.4V13.673H7.13333L7.2 13.3123C7.66667 13.7058 8.03889 13.815 8.31667 13.6402C8.59444 13.4653 8.72222 13.1156 8.7 12.591ZM11.5 12.2959H10.8333V12.7549C10.8333 12.9954 10.7111 13.1156 10.4667 13.1156H10.3333C10.0889 13.1156 9.96667 12.9954 9.96667 12.7549V11.8041H11.5V11.2467C11.5 10.6784 11.4889 10.3178 11.4667 10.1648C11.4 9.81504 11.1611 9.59646 10.75 9.50903C10.3389 9.4216 10 9.47624 9.73333 9.67296C9.55556 9.82597 9.43333 9.9899 9.36667 10.1648C9.3 10.3833 9.26667 10.6784 9.26667 11.05V12.2959C9.26667 13.1047 9.57778 13.5746 10.2 13.7058C10.7333 13.815 11.1222 13.6402 11.3667 13.1812C11.5222 12.9407 11.5667 12.6456 11.5 12.2959ZM8.06667 5.54182C8.11111 5.65111 8.18889 5.73854 8.3 5.80411C8.38889 5.86969 8.51111 5.90247 8.66667 5.90247C8.8 5.90247 8.91111 5.86969 9 5.80411C9.08889 5.73854 9.16667 5.64018 9.23333 5.50903V5.8369H10.2333V1.67296H9.43333V4.91887C9.43333 5.13744 9.32222 5.24673 9.1 5.24673C8.9 5.24673 8.8 5.13744 8.8 4.91887V1.67296H7.96667V4.49264C7.96667 4.88608 7.97778 5.12652 8 5.21395C8 5.30138 8.02222 5.41067 8.06667 5.54182ZM5.06667 3.21395C5.06667 2.8205 5.1 2.50356 5.16667 2.26313C5.23333 2.06641 5.35556 1.89154 5.53333 1.73854C5.71111 1.60739 5.93333 1.54182 6.2 1.54182C6.44444 1.54182 6.64444 1.58553 6.8 1.67296C6.95556 1.73854 7.07778 1.84783 7.16667 2.00083C7.25556 2.11012 7.32222 2.2522 7.36667 2.42706C7.38889 2.53635 7.4 2.76586 7.4 3.11559V4.16477C7.4 4.60193 7.38889 4.88608 7.36667 5.01723C7.34444 5.17023 7.27778 5.33417 7.16667 5.50903C7.1 5.61832 6.97778 5.73854 6.8 5.86969C6.62222 5.93526 6.44444 5.96805 6.26667 5.96805C6.04444 5.96805 5.84444 5.93526 5.66667 5.86969C5.51111 5.80411 5.38889 5.70575 5.3 5.5746C5.21111 5.39974 5.15556 5.24673 5.13333 5.11559C5.08889 4.89701 5.06667 4.62378 5.06667 4.29591V3.21395ZM5.83333 4.85329C5.83333 4.96258 5.87222 5.06094 5.95 5.14837C6.02778 5.23581 6.12222 5.27952 6.23333 5.27952C6.5 5.27952 6.63333 5.13744 6.63333 4.85329V2.65657C6.63333 2.37242 6.5 2.23034 6.23333 2.23034C5.96667 2.23034 5.83333 2.37242 5.83333 2.65657V4.85329ZM3.1 5.96805H4.03333V2.78772L5.13333 0.0664062H4.13333L3.53333 2.09919L2.93333 0.0664062H1.93333L3.1 2.78772V5.96805Z" fill="#F1F1F2"/>
</g>
<defs>
<clipPath id="clip0_257_98">
<rect width="12.8" height="16" fill="white"/>
</clipPath>
</defs>
</svg>
